{
  "accessors": [
    {
      "bufferView": 2,
      "componentType": 5126,
      "count": 544,
      "max": [
        17.20075225830078,
        14.170295715332031,
        19.0
      ],
      "min": [
        -24.79924774169922,
        -14.329704284667969,
        0.0
      ],
      "type": "VEC3"
    },
    {
      "bufferView": 2,
      "byteOffset": 6528,
      "componentType": 5126,
      "count": 544,
      "max": [
        1.0,
        1.0,
        1.0
      ],
      "min": [
        -1.0,
        -1.0,
        -1.0
      ],
      "type": "VEC3"
    },
    {
      "bufferView": 1,
      "componentType": 5126,
      "count": 544,
      "max": [
        0.9935714602470398,
        1.0
      ],
      "min": [
        -0.007742766290903091,
        0.0
      ],
      "type": "VEC2"
    },
    {
      "bufferView": 0,
      "componentType": 5125,
      "count": 1446,
      "type": "SCALAR"
    },
    {
      "bufferView": 2,
      "byteOffset": 13056,
      "componentType": 5126,
      "count": 83,
      "max": [
        17.20075225830078,
        2.4162960052490234,
        19.0
      ],
      "min": [
        -24.79924774169922,
        -2.575704574584961,
        12.822799682617188
      ],
      "type": "VEC3"
    },
    {
      "bufferView": 2,
      "byteOffset": 14052,
      "componentType": 5126,
      "count": 83,
      "max": [
        1.0,
        1.0,
        1.0
      ],
      "min": [
        -1.0,
        -1.0,
        0.0
      ],
      "type": "VEC3"
    },
    {
      "bufferView": 1,
      "byteOffset": 4352,
      "componentType": 5126,
      "count": 83,
      "max": [
        0.993571400642395,
        0.9857894778251648
      ],
      "min": [
        0.006428572349250317,
        0.4124210476875305
      ],
      "type": "VEC2"
    },
    {
      "bufferView": 0,
      "byteOffset": 5784,
      "componentType": 5125,
      "count": 222,
      "type": "SCALAR"
    }
  ],
  "asset": {
    "extras": {
      "author": "asads (https://sketchfab.com/asads)",
      "license": "CC-BY-4.0 (http://creativecommons.org/licenses/by/4.0/)",
      "source": "https://sketchfab.com/3d-models/box-d919737a5a5b464f809d12f7e1fad78f",
      "title": "Box"
    },
    "generator": "Sketchfab-12.68.0",
    "version": "2.0"
  },
  "bufferViews": [
    {
      "buffer": 0,
      "byteLength": 6672,
      "name": "floatBufferViews",
      "target": 34963
    },
    {
      "buffer": 0,
      "byteLength": 5016,
      "byteOffset": 6672,
      "byteStride": 8,
      "name": "floatBufferViews",
      "target": 34962
    },
    {
      "buffer": 0,
      "byteLength": 15048,
      "byteOffset": 11688,
      "byteStride": 12,
      "name": "floatBufferViews",
      "target": 34962
    }
  ],
  "buffers": [
    {
      "byteLength": 26736,
      "uri": "scene.bin"
    }
  ],
  "materials": [
    {
      "doubleSided": true,
      "name": "01_-_Default",
      "pbrMetallicRoughness": {
        "baseColorFactor": [
          0.827451,
          0.521569,
          0.329412,
          1.0
        ],
        "metallicFactor": 0.0,
        "roughnessFactor": 0.6
      }
    },
    {
      "doubleSided": true,
      "name": "01_-_Defaultddd",
      "pbrMetallicRoughness": {
        "baseColorFactor": [
          0.843137,
          0.572549,
          0.407843,
          1.0
        ],
        "metallicFactor": 0.0,
        "roughnessFactor": 0.6
      }
    }
  ],
  "meshes": [
    {
      "name": "Object_0",
      "primitives": [
        {
          "attributes": {
            "NORMAL": 1,
            "POSITION": 0,
            "TEXCOORD_0": 2
          },
          "indices": 3,
          "material": 0,
          "mode": 4
        }
      ]
    },
    {
      "name": "Object_1",
      "primitives": [
        {
          "attributes": {
            "NORMAL": 5,
            "POSITION": 4,
            "TEXCOORD_0": 6
          },
          "indices": 7,
          "material": 1,
          "mode": 4
        }
      ]
    }
  ],
  "nodes": [
    {
      "children": [
        1
      ],
      "matrix": [
        1.0,
        0.0,
        0.0,
        0.0,
        0.0,
        2.220446049250313e-16,
        -1.0,
        0.0,
        0.0,
        1.0,
        2.220446049250313e-16,
        0.0,
        0.0,
        0.0,
        0.0,
        1.0
      ],
      "name": "Sketchfab_model"
    },
    {
      "children": [
        2
      ],
      "name": "a0dc61f4bffe4d9ba466d6d1dc0b6b24.3ds"
    },
    {
      "children": [
        3
      ],
      "matrix": [
        1.0,
        0.0,
        0.0,
        0.0,
        0.0,
        1.0,
        0.0,
        0.0,
        0.0,
        0.0,
        1.0,
        0.0,
        -3.7992477416992188,
        -0.07970428466796875,
        0.0,
        1.0
      ],
      "name": "Box001"
    },
    {
      "children": [
        4,
        5
      ],
      "matrix": [
        1.0,
        0.0,
        0.0,
        0.0,
        0.0,
        1.0,
        0.0,
        0.0,
        0.0,
        0.0,
        1.0,
        0.0,
        3.7992477416992188,
        0.07970428466796875,
        -0.0,
        1.0
      ],
      "name": "3DSMeshMatrix"
    },
    {
      "mesh": 0,
      "name": "Object_4"
    },
    {
      "mesh": 1,
      "name": "Object_5"
    }
  ],
  "scene": 0,
  "scenes": [
    {
      "name": "Sketchfab_Scene",
      "nodes": [
        0
      ]
    }
  ]
}
